PathFileType	4	(X/Y/Z)	/Users/niels/Desktop/University/Third Semester/Perception and Action/Exam/Gymnastics Motion Tracking/Code for Gym Tracking/Analyzed Data/Webcam_Backflip/id8_4_pure_Sports2D/id8_4_pure_Sports2D_px_person00.trc
DataRate	CameraRate	NumFrames	NumMarkers	Units	OrigDataRate	OrigDataStartFrame	OrigNumFrames
29.81132075471698	29.81132075471698	11	22	m	29.81132075471698	79	159
Frame#	Time	Hip			RHip			RKnee			RAnkle			RBigToe			RSmallToe			RHeel			LHip			LKnee			LAnkle			LBigToe			LSmallToe			LHeel			Neck			Head			Nose			RShoulder			RElbow			RWrist			LShoulder			LElbow			LWrist		
		X1	Y1	Z1	X2	Y2	Z2	X3	Y3	Z3	X4	Y4	Z4	X5	Y5	Z5	X6	Y6	Z6	X7	Y7	Z7	X8	Y8	Z8	X9	Y9	Z9	X10	Y10	Z10	X11	Y11	Z11	X12	Y12	Z12	X13	Y13	Z13	X14	Y14	Z14	X15	Y15	Z15	X16	Y16	Z16	X17	Y17	Z17	X18	Y18	Z18	X19	Y19	Z19	X20	Y20	Z20	X21	Y21	Z21	X22	Y22	Z22
79	2.65	0.9143358067546563	-0.588392150134727	0.0	0.9130726136972226	-0.5860491859771367	0.0	0.9572491866193911	-0.6820289053015468	0.0	0.9195422366458409	-0.7766816165054637	0.0	0.935430972911249	-0.7843024017059763	0.0	0.9363667927619631	-0.7901633221473562	0.0	0.9093408683894274	-0.7853436939243134	0.0	0.9153434506749335	-0.584741873640432	0.0	0.9309715713667615	-0.6815881202828403	0.0	0.8546565705024427	-0.7342927039317406	0.0	0.8508903556663492	-0.7767661745205109	0.0	0.8471063361892891	-0.7696246891784984	0.0	0.8401278338988925	-0.7333662016573792	0.0	0.9181919892337951	-0.4582454014489162	0.0	0.9369793511252594	-0.39764874593035104	0.0	0.9467172388918307	-0.4274860537906605	0.0	0.912101348845663	-0.46887174838742895	0.0	0.9640676451968089	-0.4291387637805204	0.0	0.9997019825585783	-0.3809208014662086	0.0	0.9167382988366712	-0.46302762507347583	0.0	0.9572896158913079	-0.42398102649143826	0.0	0.9882050669962797	-0.38286407550963936	0.0
80	2.6835443037974684	0.9152319757230244	-0.5707760493636168	0.0	0.9137667331414727	-0.5683613996173472	0.0	0.9567100525939604	-0.6654718427625407	0.0	0.9218248769760338	-0.7628240481190698	0.0	0.943045941496947	-0.7755786751282749	0.0	0.9407509229519926	-0.7802704016195647	0.0	0.9119296635939178	-0.7717806552558834	0.0	0.91645280711513	-0.5667923356509191	0.0	0.9361180325809332	-0.6651620106580126	0.0	0.8651228758299192	-0.7237622399603029	0.0	0.8664137031796977	-0.7658817570627884	0.0	0.8625258803569117	-0.7579710160798976	0.0	0.8511225564164981	-0.724339318246267	0.0	0.9210432512646273	-0.4419360885657072	0.0	0.9420751838482694	-0.3809118788401035	0.0	0.9510125933547662	-0.4121365308352959	0.0	0.9145258412720452	-0.45271322056610963	0.0	0.9681577614455212	-0.42085633974346204	0.0	1.0097281774334483	-0.3794592914073892	0.0	0.9184074084867611	-0.4472039487106336	0.0	0.9597240876879275	-0.4138366089845449	0.0	0.9927079917089067	-0.3800864664397785	0.0
81	2.7170886075949365	0.9166503113481614	-0.5557219420171006	0.0	0.9150442870853834	-0.5530850830727418	0.0	0.9550212722324812	-0.6509884719821482	0.0	0.9241926650945795	-0.751109232249286	0.0	0.9501054311023837	-0.769763095571893	0.0	0.9448055025068018	-0.7731693484650743	0.0	0.9144836630328931	-0.7603975535165444	0.0	0.9176161419025053	-0.551273897300548	0.0	0.939494268094079	-0.6507032541960777	0.0	0.8763205217570323	-0.7169588473678878	0.0	0.8835706753337285	-0.757521332737513	0.0	0.8793212244824626	-0.749127475118603	0.0	0.8630884856828094	-0.7198032889706025	0.0	0.9243004150676134	-0.4269358640430581	0.0	0.9465042777539602	-0.3652937947929494	0.0	0.9556684702439455	-0.3981315961167569	0.0	0.9174849461476228	-0.43762028442351175	0.0	0.9708912413855919	-0.4151404586418201	0.0	1.0176405059523312	-0.381994264332815	0.0	0.9195488295405506	-0.43298783854192935	0.0	0.9614152496642733	-0.4069666358578967	0.0	0.9961168524736511	-0.38083078550622385	0.0
82	2.750632911392405	0.9186076775231574	-0.5443300676117415	0.0	0.9169225518404183	-0.5414555172349991	0.0	0.9526206488410276	-0.6397722150763464	0.0	0.9264467042682623	-0.7422545994558519	0.0	0.9554638347014608	-0.7666896477727895	0.0	0.9480405867145584	-0.7688824549347432	0.0	0.916887430387681	-0.7519109565041995	0.0	0.9191467808012573	-0.539543808205117	0.0	0.9413064581139895	-0.6394728100422596	0.0	0.8879874054660465	-0.7140260645415047	0.0	0.9011736191689479	-0.752323747691312	0.0	0.8965590322858549	-0.7438606807151	0.0	0.8756307823184319	-0.7195115011343435	0.0	0.9278162712309661	-0.41461873843904373	0.0	0.9501081492451446	-0.3521081150412438	0.0	0.9601677546380757	-0.3867160393191674	0.0	0.920728555017402	-0.4249987628061499	0.0	0.9720900263750731	-0.4129993692094888	0.0	1.0226904202555387	-0.38951568510699475	0.0	0.9208275258583584	-0.4215530374940097	0.0	0.9638862424054142	-0.40462731808111757	0.0	1.0013135143739982	-0.38556861012652915	0.0
83	2.784177215189873	0.92101656230165	-0.536946596783258	0.0	0.9194338860372544	-0.5339416299233112	0.0	0.9500212527470475	-0.6325026701128623	0.0	0.9284240248806744	-0.7365900703902456	0.0	0.9591897516796106	-0.765877644572053	0.0	0.9505483222329095	-0.7670882474575533	0.0	0.9189642326196058	-0.7466919380200594	0.0	0.9212172576094105	-0.5320683882337757	0.0	0.941972556701253	-0.6321454319644702	0.0	0.8995912831750136	-0.7145724002567283	0.0	0.9180319137643876	-0.750454405540216	0.0	0.9133372827422382	-0.7423340718479633	0.0	0.888066477412207	-0.7225569231578747	0.0	0.9313611775631362	-0.40593519144310586	0.0	0.9528249456568996	-0.3422949829225116	0.0	0.9640352512327028	-0.378768217901014	0.0	0.9240033198547558	-0.4159543275505031	0.0	0.9716442038986001	-0.41497117521792076	0.0	1.0243720653788024	-0.402386514125595	0.0	0.9229053077876662	-0.413676378423404	0.0	0.9680427903883182	-0.4069948882918656	0.0	1.0098870812513834	-0.3941518774060578	0.0
84	2.8177215189873417	0.9237027204853343	-0.5334499326381542	0.0	0.9225837614129025	-0.5304295168065981	0.0	0.9476811650406571	-0.6293843072861508	0.0	0.9300789115556167	-0.7343032285002709	0.0	0.9619288286920744	-0.7669202883947653	0.0	0.9526724016209037	-0.7674617119027516	0.0	0.9206716405613182	-0.7449416738269925	0.0	0.9236842496588704	-0.5286480811818166	0.0	0.9419248846048652	-0.6288676120141076	0.0	0.9103187929181548	-0.7180257076602942	0.0	0.9331445496563263	-0.7516755219741792	0.0	0.9287411540121022	-0.7442178640279257	0.0	0.8994861460963847	-0.7279768837238406	0.0	0.9346906791815122	-0.40139274096086996	0.0	0.9547714121602993	-0.33642147718969223	0.0	0.9670254254457797	-0.37471791830834517	0.0	0.9270884745025018	-0.4112237468479582	0.0	0.9695688653236352	-0.4212081796651207	0.0	1.0227032565515624	-0.42035262385087574	0.0	0.9258557912571237	-0.4098352811032518	0.0	0.9729151571977375	-0.41340606639305927	0.0	1.0200592355650286	-0.4061963958106259	0.0
85	2.85126582278481	0.9265015877948394	-0.5336123167865882	0.0	0.9262680925069187	-0.530622849537685	0.0	0.9459296225665385	-0.6302797796747845	0.0	0.9314315759105389	-0.7355370968377702	0.0	0.9641762506254592	-0.7696328330412482	0.0	0.9546053414292063	-0.7698435734327961	0.0	0.9220758618596347	-0.746802603674261	0.0	0.9262071421556228	-0.528898900513551	0.0	0.9415099899856247	-0.6294533820280022	0.0	0.9192576329176598	-0.7238501523891353	0.0	0.9456271007048866	-0.755483493306835	0.0	0.9416793295249758	-0.748897636689503	0.0	0.9089382288582051	-0.735117203827741	0.0	0.9376279869953986	-0.4010749802247637	0.0	0.9561733806090247	-0.3346929742293985	0.0	0.9691252564464933	-0.3745695053427713	0.0	0.9298531654897966	-0.41109032924297406	0.0	0.9663309341937049	-0.43150038364970916	0.0	1.0184640561692855	-0.4425148526388258	0.0	0.9291765628770405	-0.4102223148311364	0.0	0.9766632461252972	-0.4231044952240851	0.0	1.0285725945811093	-0.4214932596414748	0.0
86	2.8848101265822783	0.9293646060696843	-0.5372246045873889	0.0	0.9302426837213452	-0.5342799120597186	0.0	0.9449050157056621	-0.6348274191623011	0.0	0.9324195485460212	-0.7401769834800848	0.0	0.9659892213659051	-0.7739320513074198	0.0	0.9562577529389488	-0.7741296860741653	0.0	0.9231288807421879	-0.752157626082019	0.0	0.9286023913571827	-0.5325379412842497	0.0	0.9410465738898536	-0.633565251394965	0.0	0.9257376387841347	-0.7315841639104771	0.0	0.954790759588431	-0.7613140030103654	0.0	0.9511418687368656	-0.7556871016486296	0.0	0.9157272463653321	-0.7436307640393917	0.0	0.9400986076597074	-0.40469663805829076	0.0	0.9572086697779277	-0.3369648719869396	0.0	0.9704714826337985	-0.3780052744413873	0.0	0.9322482114986859	-0.415392024213172	0.0	0.9628590270748698	-0.44535036478386403	0.0	1.0128772447935148	-0.4675282729581211	0.0	0.9323498888343891	-0.4147183621823022	0.0	0.9782341544253027	-0.4357138981401114	0.0	1.0332891681592664	-0.44007095935190366	0.0
87	2.918354430379747	0.9323426099678717	-0.5439979913915718	0.0	0.9341908600741624	-0.5411433084224876	0.0	0.9445197225378393	-0.642462559972279	0.0	0.9328536345145119	-0.7476465898363743	0.0	0.9671126027025737	-0.7796900504763015	0.0	0.9573554108157165	-0.7801218903220137	0.0	0.9236132186213836	-0.7603801520422961	0.0	0.9310140963827174	-0.5393220418939628	0.0	0.9408059342322098	-0.6407400332287884	0.0	0.9296162016932459	-0.7407740316757095	0.0	0.9605074099558711	-0.768670338443847	0.0	0.9567984213084546	-0.7639716377431837	0.0	0.9196886379497834	-0.753264896219652	0.0	0.9421413127657577	-0.411674565583629	0.0	0.9579685678053143	-0.34278698844841693	0.0	0.9713209337787917	-0.38448889149008614	0.0	0.9342647021665532	-0.4236139812901252	0.0	0.9599214832743314	-0.46211428205173544	0.0	1.0068117150749365	-0.49402540790606186	0.0	0.9352839167390106	-0.4228894417505273	0.0	0.9776306412564068	-0.4510556304980736	0.0	1.033525032977556	-0.4618941882132668	0.0
88	2.951898734177215	0.935472331625362	-0.5534215176569623	0.0	0.9378450788567049	-0.5507556789349222	0.0	0.9445120157470169	-0.6524091723396823	0.0	0.93256010188493	-0.757028701396425	0.0	0.9672697662201227	-0.7866855888187881	0.0	0.9576205073822841	-0.7874878473685306	0.0	0.9233591881223044	-0.7704547911360499	0.0	0.933731809064301	-0.5488502455896078	0.0	0.9409025698488416	-0.6503372747050404	0.0	0.9312642251050487	-0.7509242899284436	0.0	0.9633312766261287	-0.7771286526235246	0.0	0.9591826153706212	-0.773233214576411	0.0	0.9212062693194745	-0.7636829653286148	0.0	0.9438928558904355	-0.421181566793643	0.0	0.9585080070470977	-0.3514907237390446	0.0	0.9720095325179686	-0.3933120842406615	0.0	0.9359395282769061	-0.4349547801195013	0.0	0.9576153112833038	-0.4809777124360897	0.0	1.0003430888477223	-0.5207983811992948	0.0	0.9381891875270053	-0.4339803470332889	0.0	0.9753224406925269	-0.46873088910004124	0.0	1.0293906290327808	-0.48652702655538727	0.0
89	2.9854430379746835	0.9387139015063063	-0.5647430857508164	0.0	0.9410658123650609	-0.562405705093898	0.0	0.9445823370495089	-0.6637452754620043	0.0	0.9315315930489603	-0.7673026794537132	0.0	0.9663565738447764	-0.7945399080065532	0.0	0.9568961911191931	-0.7957285062925964	0.0	0.9224398285886517	-0.7812898004336576	0.0	0.936904551562845	-0.5604721528507616	0.0	0.9412785604214389	-0.6615477397062302	0.0	0.9313035240962345	-0.7614788005827919	0.0	0.964165786441893	-0.786238187686357	0.0	0.9593099059215335	-0.7829412560338614	0.0	0.9209558686909449	-0.7744095364847794	0.0	0.945517647686201	-0.43222846000590137	0.0	0.9589038938917748	-0.3622784423379281	0.0	0.9728353890407696	-0.4036423168031074	0.0	0.9373822973227579	-0.4483230336503366	0.0	0.955529409210766	-0.5007773260642394	0.0	0.9930469218837501	-0.5466866899349381	0.0	0.941189265772347	-0.4469323545322591	0.0	0.9717818016206481	-0.48789168432708924	0.0	1.0213221353844544	-0.5129507589664216	0.0
